<svg width="16" height="16" viewBox="0 0 16 16" fill="none" xmlns="http://www.w3.org/2000/svg">
<rect width="16" height="16" rx="4" fill="#4682B4"/>
<path d="M4.02057 14.5C3.51968 14.5 3.13804 14.3706 2.87567 14.1117C2.62522 13.8528 2.5 13.5199 2.5 13.1131C2.5 12.7309 2.60137 12.3857 2.80411 12.0775C3.00686 11.757 3.26923 11.5043 3.59123 11.3193C3.92516 11.1221 4.26506 11.0235 4.61091 11.0235C4.75402 11.0235 4.89714 11.042 5.04025 11.0789C5.18336 11.1036 5.32051 11.1529 5.4517 11.2269V3.34922L12.5 1.5V10.5797C12.5 11.2454 12.3629 11.8186 12.0886 12.2994C11.8262 12.7679 11.4803 13.1316 11.051 13.3905C10.6216 13.637 10.1685 13.7603 9.69141 13.7603C9.19052 13.7603 8.80888 13.6309 8.54651 13.372C8.28414 13.1131 8.15295 12.7802 8.15295 12.3734C8.15295 11.9912 8.25432 11.646 8.45707 11.3378C8.67174 11.0173 8.94007 10.7646 9.26207 10.5797C9.58408 10.3824 9.92397 10.2838 10.2818 10.2838C10.4249 10.2838 10.568 10.3023 10.7111 10.3393C10.8542 10.3639 10.9854 10.4132 11.1047 10.4872V2.97937L11.6413 3.47866L6.22093 5.03201L6.82916 4.16287V11.3193C6.82916 11.9851 6.69201 12.5583 6.41771 13.0391C6.15534 13.5076 5.80948 13.8651 5.38014 14.1117C4.9508 14.3706 4.49761 14.5 4.02057 14.5Z" fill="white"/>
</svg>
